<mxfile host="app.diagrams.net" agent="Mozilla/5.0 (Windows NT 10.0; Win64; x64; rv:136.0) Gecko/20100101 Firefox/136.0" version="26.1.3">
  <diagram name="Strona-1" id="3zuMNqmiziyQmaPHH1Cd">
    <mxGraphModel dx="1434" dy="782" grid="1" gridSize="10" guides="1" tooltips="1" connect="1" arrows="1" fold="1" page="1" pageScale="1" pageWidth="827" pageHeight="1169" math="0" shadow="0">
      <root>
        <mxCell id="0" />
        <mxCell id="1" parent="0" />
        <mxCell id="cttsqxFZJV4hknJ0yJ9P-1" value="Klient" style="shape=umlActor;verticalLabelPosition=bottom;verticalAlign=top;html=1;outlineConnect=0;" vertex="1" parent="1">
          <mxGeometry x="30" y="230" width="30" height="60" as="geometry" />
        </mxCell>
        <mxCell id="cttsqxFZJV4hknJ0yJ9P-5" value="Oferta zakładu" style="shape=umlBoundary;whiteSpace=wrap;html=1;" vertex="1" parent="1">
          <mxGeometry x="170" y="140" width="100" height="80" as="geometry" />
        </mxCell>
        <mxCell id="cttsqxFZJV4hknJ0yJ9P-7" value="" style="endArrow=none;html=1;rounded=0;" edge="1" parent="1" source="cttsqxFZJV4hknJ0yJ9P-1" target="cttsqxFZJV4hknJ0yJ9P-5">
          <mxGeometry width="50" height="50" relative="1" as="geometry">
            <mxPoint x="150" y="230" as="sourcePoint" />
            <mxPoint x="200" y="180" as="targetPoint" />
          </mxGeometry>
        </mxCell>
        <mxCell id="cttsqxFZJV4hknJ0yJ9P-8" value="Formularz logowania" style="shape=umlBoundary;whiteSpace=wrap;html=1;" vertex="1" parent="1">
          <mxGeometry x="170" y="30" width="100" height="80" as="geometry" />
        </mxCell>
        <mxCell id="cttsqxFZJV4hknJ0yJ9P-9" value="" style="endArrow=none;html=1;rounded=0;entryX=0;entryY=0.413;entryDx=0;entryDy=0;entryPerimeter=0;" edge="1" parent="1" source="cttsqxFZJV4hknJ0yJ9P-1" target="cttsqxFZJV4hknJ0yJ9P-8">
          <mxGeometry width="50" height="50" relative="1" as="geometry">
            <mxPoint x="130" y="180" as="sourcePoint" />
            <mxPoint x="180" y="80" as="targetPoint" />
          </mxGeometry>
        </mxCell>
        <mxCell id="cttsqxFZJV4hknJ0yJ9P-10" value="Logowanie" style="ellipse;shape=umlControl;whiteSpace=wrap;html=1;" vertex="1" parent="1">
          <mxGeometry x="410" y="20" width="100" height="90" as="geometry" />
        </mxCell>
        <mxCell id="cttsqxFZJV4hknJ0yJ9P-13" value="" style="endArrow=open;endFill=1;endSize=12;html=1;rounded=0;entryX=0.014;entryY=0.525;entryDx=0;entryDy=0;entryPerimeter=0;" edge="1" parent="1" source="cttsqxFZJV4hknJ0yJ9P-8" target="cttsqxFZJV4hknJ0yJ9P-10">
          <mxGeometry width="160" relative="1" as="geometry">
            <mxPoint x="290" y="90" as="sourcePoint" />
            <mxPoint x="380" y="90" as="targetPoint" />
          </mxGeometry>
        </mxCell>
        <mxCell id="cttsqxFZJV4hknJ0yJ9P-16" value="Obstawienie pieniędzy" style="ellipse;shape=umlControl;whiteSpace=wrap;html=1;" vertex="1" parent="1">
          <mxGeometry x="360" y="240" width="90" height="100" as="geometry" />
        </mxCell>
        <mxCell id="cttsqxFZJV4hknJ0yJ9P-22" value="" style="endArrow=open;endFill=1;endSize=12;html=1;rounded=0;" edge="1" parent="1" source="cttsqxFZJV4hknJ0yJ9P-5" target="cttsqxFZJV4hknJ0yJ9P-16">
          <mxGeometry width="160" relative="1" as="geometry">
            <mxPoint x="310" y="300" as="sourcePoint" />
            <mxPoint x="470" y="300" as="targetPoint" />
          </mxGeometry>
        </mxCell>
        <mxCell id="cttsqxFZJV4hknJ0yJ9P-23" value="&lt;div&gt;Zakład klienta&lt;/div&gt;" style="ellipse;shape=umlEntity;whiteSpace=wrap;html=1;" vertex="1" parent="1">
          <mxGeometry x="379" y="380" width="80" height="80" as="geometry" />
        </mxCell>
        <mxCell id="cttsqxFZJV4hknJ0yJ9P-24" value="" style="endArrow=open;endFill=1;endSize=12;html=1;rounded=0;" edge="1" parent="1" source="cttsqxFZJV4hknJ0yJ9P-16" target="cttsqxFZJV4hknJ0yJ9P-23">
          <mxGeometry width="160" relative="1" as="geometry">
            <mxPoint x="480" y="300" as="sourcePoint" />
            <mxPoint x="640" y="300" as="targetPoint" />
          </mxGeometry>
        </mxCell>
        <mxCell id="cttsqxFZJV4hknJ0yJ9P-26" value="Autoryzacja" style="shape=umlBoundary;whiteSpace=wrap;html=1;" vertex="1" parent="1">
          <mxGeometry x="210" y="300" width="100" height="80" as="geometry" />
        </mxCell>
        <mxCell id="cttsqxFZJV4hknJ0yJ9P-30" value="" style="endArrow=none;html=1;rounded=0;entryX=0;entryY=0.463;entryDx=0;entryDy=0;entryPerimeter=0;" edge="1" parent="1" source="cttsqxFZJV4hknJ0yJ9P-1" target="cttsqxFZJV4hknJ0yJ9P-26">
          <mxGeometry width="50" height="50" relative="1" as="geometry">
            <mxPoint x="130" y="240" as="sourcePoint" />
            <mxPoint x="190" y="240" as="targetPoint" />
          </mxGeometry>
        </mxCell>
        <mxCell id="cttsqxFZJV4hknJ0yJ9P-32" value="Potwierdzenie zakładu" style="ellipse;shape=umlControl;whiteSpace=wrap;html=1;" vertex="1" parent="1">
          <mxGeometry x="369" y="520" width="90" height="100" as="geometry" />
        </mxCell>
        <mxCell id="cttsqxFZJV4hknJ0yJ9P-34" value="" style="endArrow=open;endFill=1;endSize=12;html=1;rounded=0;" edge="1" parent="1" source="cttsqxFZJV4hknJ0yJ9P-23" target="cttsqxFZJV4hknJ0yJ9P-32">
          <mxGeometry width="160" relative="1" as="geometry">
            <mxPoint x="540" y="450" as="sourcePoint" />
            <mxPoint x="700" y="450" as="targetPoint" />
          </mxGeometry>
        </mxCell>
        <mxCell id="cttsqxFZJV4hknJ0yJ9P-35" value="Baza danych " style="ellipse;shape=umlEntity;whiteSpace=wrap;html=1;" vertex="1" parent="1">
          <mxGeometry x="690" y="300" width="80" height="80" as="geometry" />
        </mxCell>
        <mxCell id="cttsqxFZJV4hknJ0yJ9P-36" value="" style="endArrow=open;endFill=1;endSize=12;html=1;rounded=0;" edge="1" parent="1" source="cttsqxFZJV4hknJ0yJ9P-32" target="cttsqxFZJV4hknJ0yJ9P-35">
          <mxGeometry width="160" relative="1" as="geometry">
            <mxPoint x="460" y="480" as="sourcePoint" />
            <mxPoint x="620" y="480" as="targetPoint" />
          </mxGeometry>
        </mxCell>
        <mxCell id="cttsqxFZJV4hknJ0yJ9P-37" value="Lista obstawionych zakładów" style="shape=umlBoundary;whiteSpace=wrap;html=1;" vertex="1" parent="1">
          <mxGeometry x="150" y="410" width="100" height="80" as="geometry" />
        </mxCell>
        <mxCell id="cttsqxFZJV4hknJ0yJ9P-38" value="" style="endArrow=open;endFill=1;endSize=12;html=1;rounded=0;" edge="1" parent="1" source="cttsqxFZJV4hknJ0yJ9P-32" target="cttsqxFZJV4hknJ0yJ9P-37">
          <mxGeometry width="160" relative="1" as="geometry">
            <mxPoint x="380" y="550" as="sourcePoint" />
            <mxPoint x="540" y="550" as="targetPoint" />
          </mxGeometry>
        </mxCell>
        <mxCell id="cttsqxFZJV4hknJ0yJ9P-39" value="Weryfikacja danych" style="ellipse;shape=umlControl;whiteSpace=wrap;html=1;" vertex="1" parent="1">
          <mxGeometry x="680" y="45" width="70" height="80" as="geometry" />
        </mxCell>
        <mxCell id="cttsqxFZJV4hknJ0yJ9P-40" value="" style="endArrow=none;html=1;rounded=0;" edge="1" parent="1" source="cttsqxFZJV4hknJ0yJ9P-35" target="cttsqxFZJV4hknJ0yJ9P-39">
          <mxGeometry width="50" height="50" relative="1" as="geometry">
            <mxPoint x="710" y="260" as="sourcePoint" />
            <mxPoint x="760" y="210" as="targetPoint" />
          </mxGeometry>
        </mxCell>
        <mxCell id="cttsqxFZJV4hknJ0yJ9P-41" value="" style="endArrow=open;endFill=1;endSize=12;html=1;rounded=0;" edge="1" parent="1" source="cttsqxFZJV4hknJ0yJ9P-39" target="cttsqxFZJV4hknJ0yJ9P-10">
          <mxGeometry width="160" relative="1" as="geometry">
            <mxPoint x="640" y="40" as="sourcePoint" />
            <mxPoint x="710" y="70" as="targetPoint" />
          </mxGeometry>
        </mxCell>
        <mxCell id="cttsqxFZJV4hknJ0yJ9P-46" value="" style="endArrow=none;html=1;rounded=0;entryX=0.01;entryY=0.288;entryDx=0;entryDy=0;entryPerimeter=0;" edge="1" parent="1" source="cttsqxFZJV4hknJ0yJ9P-1" target="cttsqxFZJV4hknJ0yJ9P-37">
          <mxGeometry width="50" height="50" relative="1" as="geometry">
            <mxPoint x="120" y="380" as="sourcePoint" />
            <mxPoint x="170" y="330" as="targetPoint" />
          </mxGeometry>
        </mxCell>
        <mxCell id="cttsqxFZJV4hknJ0yJ9P-47" value="" style="endArrow=none;html=1;rounded=0;" edge="1" parent="1" source="cttsqxFZJV4hknJ0yJ9P-26" target="cttsqxFZJV4hknJ0yJ9P-32">
          <mxGeometry width="50" height="50" relative="1" as="geometry">
            <mxPoint x="330" y="470" as="sourcePoint" />
            <mxPoint x="380" y="420" as="targetPoint" />
          </mxGeometry>
        </mxCell>
        <mxCell id="cttsqxFZJV4hknJ0yJ9P-48" value="Konto klienta" style="ellipse;shape=umlEntity;whiteSpace=wrap;html=1;" vertex="1" parent="1">
          <mxGeometry x="510" y="140" width="80" height="80" as="geometry" />
        </mxCell>
        <mxCell id="cttsqxFZJV4hknJ0yJ9P-49" value="" style="endArrow=open;endFill=1;endSize=12;html=1;rounded=0;" edge="1" parent="1" source="cttsqxFZJV4hknJ0yJ9P-10" target="cttsqxFZJV4hknJ0yJ9P-48">
          <mxGeometry width="160" relative="1" as="geometry">
            <mxPoint x="500" y="120" as="sourcePoint" />
            <mxPoint x="660" y="120" as="targetPoint" />
          </mxGeometry>
        </mxCell>
        <mxCell id="cttsqxFZJV4hknJ0yJ9P-50" value="" style="endArrow=open;endFill=1;endSize=12;html=1;rounded=0;" edge="1" parent="1" source="cttsqxFZJV4hknJ0yJ9P-48" target="cttsqxFZJV4hknJ0yJ9P-16">
          <mxGeometry width="160" relative="1" as="geometry">
            <mxPoint x="470" y="270" as="sourcePoint" />
            <mxPoint x="630" y="270" as="targetPoint" />
          </mxGeometry>
        </mxCell>
        <mxCell id="cttsqxFZJV4hknJ0yJ9P-55" value="" style="endArrow=open;endFill=1;endSize=12;html=1;rounded=0;" edge="1" parent="1" source="cttsqxFZJV4hknJ0yJ9P-35" target="cttsqxFZJV4hknJ0yJ9P-16">
          <mxGeometry width="160" relative="1" as="geometry">
            <mxPoint x="560" y="260" as="sourcePoint" />
            <mxPoint x="720" y="260" as="targetPoint" />
          </mxGeometry>
        </mxCell>
      </root>
    </mxGraphModel>
  </diagram>
</mxfile>
